<?xml version="1.0" standalone="no"?>
<!DOCTYPE svg PUBLIC "-//W3C//DTD SVG 20010904//EN"
 "http://www.w3.org/TR/2001/REC-SVG-20010904/DTD/svg10.dtd">
<svg version="1.0" xmlns="http://www.w3.org/2000/svg"
 width="700.000000pt" height="700.000000pt" viewBox="0 0 700.000000 700.000000"
 preserveAspectRatio="xMidYMid meet">
<metadata>
Created by potrace 1.14, written by Peter Selinger 2001-2017
</metadata>
<g transform="translate(0.000000,700.000000) scale(0.100000,-0.100000)"
fill="#000000" stroke="none">
<path d="M14 4598 l1 -2402 428 0 c275 -1 431 3 436 9 4 6 7 890 7 1966 l-1
1955 1940 0 c1067 -1 1949 0 1961 2 20 4 20 7 20 438 l0 434 -2397 0 -2397 0
2 -2402z"/>
<path d="M3285 5023 c-143 -24 -255 -61 -355 -119 -109 -63 -133 -77 -140 -84
-3 -3 -39 -27 -80 -55 -41 -27 -97 -70 -124 -95 -99 -91 -199 -278 -210 -395
-33 -337 -27 -472 24 -579 52 -110 135 -183 305 -269 140 -70 178 -83 520
-173 442 -117 463 -124 562 -203 85 -67 107 -173 53 -263 -73 -125 -331 -201
-555 -163 -203 34 -356 96 -598 239 -43 25 -81 46 -86 46 -6 0 -342 -536 -377
-600 -8 -16 369 -185 511 -230 82 -25 71 -23 205 -49 97 -18 147 -27 218 -37
68 -9 506 -11 582 -2 87 9 314 68 430 111 195 72 337 162 487 309 48 47 69 78
93 134 85 204 100 469 39 679 -22 74 -46 132 -64 152 -5 6 -21 26 -35 44 -69
90 -173 166 -335 246 -152 76 -146 73 -365 133 -102 28 -198 55 -215 60 -16 6
-84 25 -150 44 -157 45 -209 69 -266 123 -131 123 -78 282 119 356 51 20 75
22 232 20 166 -1 179 -2 260 -31 47 -16 140 -55 207 -86 67 -31 124 -56 127
-56 5 0 164 253 286 455 l69 114 -47 22 c-179 81 -312 126 -477 159 -33 7 -64
13 -70 15 -170 36 -630 53 -780 28z"/>
<path d="M6130 2853 c0 -1863 -1 -1963 -17 -1964 -10 0 -899 -1 -1975 -1
l-1958 -1 0 -436 0 -437 2408 1 2407 0 3 2401 2 2401 -435 0 -435 0 0 -1964z"/>
</g>
</svg>
